:SAMPLES-PER-SECOND 30
:FULLY-SPECIFIED
:DEGREES
131
root  -52.1411 40.4199 -30.1123 176.012 -33.2364 179.181
RightUpLeg  -11.6795 -7.58056 0.121901
RightLeg  11.8053 0.694517 5.24096
RightFoot  5.83278 1.53875 -9.89177
RightToes  -1.16417e-010 0 -3.6325e-017
Spine  3.92778 -1.14854 8.12224
Spine1  5.03086 -0.657587 -1.03141
HEad  -11.5773 2.80725 -2.7092
LeftShoulder1  7.94381 -10.8676 -48.2376
LeftArm  -9.83546 23.9245 -28.1302
LeftForeArm  25.661 -12.712 -4.78713
LeftHand  -0.244104 0.0205437 5.32207
RightShoulder  5.35872 8.68769 37.9136
RightArm  -7.79903 -18.2288 36.945
RightForeArm  7.00294 14.2269 5.80146
RightHand  -1.59487 5.3865 -17.3529
LeftUpLeg  -14.5482 8.12262 0.262212
LeftLeg  47.5738 6.33993 7.78247
LeftFoot  -6.99154 0.218449 -4.61807
LeftToes  5.72949e-011 -1.2716e-010 -5.73128e-012
132
root  -52.5096 40.6345 -30.6533 176.718 -32.6385 178.395
RightUpLeg  -10.2861 -7.47548 -0.619925
RightLeg  10.6336 1.27164 5.3371
RightFoot  5.34243 1.49569 -9.91751
RightToes  -1.16417e-010 0 -3.6325e-017
Spine  4.20152 -0.777082 7.50847
Spine1  5.0929 -0.220748 -1.50578
HEad  -12.379 2.58443 -2.64183
LeftShoulder1  7.60861 -10.4956 -47.4142
LeftArm  -11.6746 25.2778 -27.2746
LeftForeArm  24.6195 -12.471 -4.31891
LeftHand  -0.244104 0.0205437 5.32207
RightShoulder  5.39043 8.70994 38.0868
RightArm  -10.7911 -17.9973 35.9664
RightForeArm  6.68028 13.8456 5.49979
RightHand  -1.53148 5.21016 -16.9485
LeftUpLeg  -13.5567 6.41507 -0.276556
LeftLeg  36.517 7.16859 6.07299
LeftFoot  -9.4242 0.126147 -4.23439
LeftToes  5.72949e-011 -1.2716e-010 -5.73128e-012
133
root  -52.8882 40.7556 -31.1582 176.897 -31.7795 178.086
RightUpLeg  -9.11173 -7.39198 -0.858967
RightLeg  10.3245 2.01154 5.25257
RightFoot  4.53145 1.43371 -10.0274
RightToes  -1.16417e-010 0 -3.6325e-017
Spine  4.23916 -0.327591 7.52785
Spine1  5.57142 0.362311 -2.08149
HEad  -12.7877 2.3089 -2.72076
LeftShoulder1  7.03781 -9.89395 -45.7776
LeftArm  -13.2739 26.0105 -26.2693
LeftForeArm  24.1095 -11.7288 -3.86213
LeftHand  -0.244104 0.0205437 5.32207
RightShoulder  5.32755 8.66727 37.7381
RightArm  -14.2313 -18.2882 34.1261
RightForeArm  5.68403 13.0555 5.13849
RightHand  -1.45676 4.94385 -16.5477
LeftUpLeg  -11.4193 4.15636 -0.275465
LeftLeg  24.951 5.69261 3.26035
LeftFoot  -9.71597 0.123044 -4.43038
LeftToes  5.72949e-011 -1.2716e-010 -5.73128e-012
134
root  -53.2908 40.8198 -31.6098 176.474 -30.6694 178.529
RightUpLeg  -8.00313 -7.10601 -0.483711
RightLeg  10.3434 2.78237 5.17218
RightFoot  3.77365 1.36436 -10.0532
RightToes  -1.16417e-010 0 -3.6325e-017
Spine  4.0732 0.110975 8.42509
Spine1  6.28945 1.00753 -2.84699
HEad  -12.756 2.17921 -2.92768
LeftShoulder1  6.25432 -9.0371 -43.3473
LeftArm  -14.0662 26.2978 -24.9716
LeftForeArm  22.847 -10.5648 -3.55568
LeftHand  -0.244104 0.0205437 5.32207
RightShoulder  5.12321 8.5159 36.625
RightArm  -16.7732 -18.4992 31.3071
RightForeArm  5.19193 11.3668 4.7381
RightHand  -1.47077 5.07324 -16.5027
LeftUpLeg  -9.15072 2.99326 0.263343
LeftLeg  16.1177 2.83442 1.1483
LeftFoot  -6.79404 0.19412 -4.00245
LeftToes  5.72949e-011 -1.2716e-010 -5.73128e-012
135
root  -53.6898 40.8855 -31.998 175.931 -29.7745 179.362
RightUpLeg  -6.82031 -6.66458 0.133968
RightLeg  9.90397 3.21324 5.05647
RightFoot  3.16957 1.26724 -9.74963
RightToes  -1.16417e-010 0 -3.6325e-017
Spine  3.71754 0.326899 9.21316
Spine1  6.97327 1.30714 -3.19728
HEad  -12.5009 2.43874 -3.28952
LeftShoulder1  5.38284 -7.97331 -40.5756
LeftArm  -14.1598 26.4168 -23.1781
LeftForeArm  21.1424 -9.41127 -3.35299
LeftHand  -0.244104 0.0205437 5.32207
RightShoulder  4.76204 8.19052 34.7605
RightArm  -17.74 -18.2971 27.4702
RightForeArm  4.48944 9.26038 4.34845
RightHand  -1.53154 5.45349 -16.587
LeftUpLeg  -7.60192 3.17032 0.9307
LeftLeg  11.8804 1.30937 0.123672
LeftFoot  -2.7937 0.164076 -1.99996
LeftToes  5.72949e-011 -1.2716e-010 -5.73128e-012
136
root  -54.0394 40.9499 -32.3495 175.702 -29.677 -179.975
RightUpLeg  -5.80427 -6.25311 0.546213
RightLeg  9.27949 2.89456 4.8125
RightFoot  2.48835 1.14207 -9.24794
RightToes  -1.16417e-010 0 -3.6325e-017
Spine  3.33692 0.232511 8.55789
Spine1  7.24855 0.885379 -2.05713
HEad  -12.2225 3.05309 -3.73629
LeftShoulder1  4.55581 -6.8353 -37.8676
LeftArm  -14.052 26.6951 -20.801
LeftForeArm  19.6466 -8.82795 -3.13694
LeftHand  -0.244104 0.0205437 5.32207
RightShoulder  4.24267 7.57843 32.3348
RightArm  -17.6684 -17.9034 22.8984
RightForeArm  2.28342 7.93357 4.16378
RightHand  -1.52292 5.45012 -16.5003
LeftUpLeg  -6.77447 3.55236 1.29578
LeftLeg  10.9897 1.27302 -0.194655
LeftFoot  -0.663632 -0.0170676 0.270635
LeftToes  5.72949e-011 -1.2716e-010 -5.73128e-012
137
root  -54.3273 41.0198 -32.6976 175.907 -30.2353 -179.807
RightUpLeg  -5.09137 -5.97166 0.547114
RightLeg  8.79783 2.14271 4.50586
RightFoot  1.84459 1.03415 -8.81396
RightToes  -1.16417e-010 0 -3.6325e-017
Spine  3.03951 0.0152137 6.57749
Spine1  6.95574 0.0970168 0.0516608
HEad  -11.8593 3.64823 -3.91493
LeftShoulder1  3.82016 -5.7785 -35.0252
LeftArm  -13.9982 27.1144 -17.8861
LeftForeArm  18.3176 -8.8713 -2.88875
LeftHand  -0.244104 0.0205437 5.32207
RightShoulder  3.60856 6.62391 29.6546
RightArm  -17.6361 -17.6593 18.2133
RightForeArm  -1.16679 7.59124 4.16857
RightHand  -1.44424 4.91799 -16.4502
LeftUpLeg  -6.0731 3.29079 1.28527
LeftLeg  10.5837 1.3914 -0.228964
LeftFoot  -0.66951 -0.110437 1.22924
LeftToes  5.72949e-011 -1.2716e-010 -5.73128e-012
138
root  -54.5957 41.1158 -33.0415 176.489 -30.6347 179.949
RightUpLeg  -4.56004 -5.82795 0.236667
RightLeg  8.2215 1.78856 4.25129
RightFoot  1.44287 0.950012 -8.3697
RightToes  -1.16417e-010 0 -3.6325e-017
Spine  2.60723 -0.065964 4.93298
Spine1  6.34479 -0.260953 1.06265
HEad  -11.2385 3.90345 -3.5249
LeftShoulder1  3.11957 -4.78509 -31.506
LeftArm  -13.9956 27.2239 -14.6894
LeftForeArm  17.0928 -9.15887 -2.6409
LeftHand  -0.244104 0.0205437 5.32207
RightShoulder  2.9486 5.45091 26.8787
RightArm  -17.7689 -17.5791 14.0344
RightForeArm  -4.42669 7.21106 4.10428
RightHand  -1.40067 4.4336 -16.7184
LeftUpLeg  -5.17616 3.00022 1.16458
LeftLeg  9.16051 1.15828 -0.662529
LeftFoot  -0.966271 -0.114397 1.32407
LeftToes  5.72949e-011 -1.2716e-010 -5.73128e-012
139
root  -54.8842 41.2142 -33.3599 177.236 -30.5017 179.622
RightUpLeg  -4.10925 -5.76247 -0.163588
RightLeg  7.47291 2.00572 4.09688
RightFoot  1.10471 0.853347 -7.7372
RightToes  -1.16417e-010 0 -3.6325e-017
Spine  1.88741 -0.0150578 4.64538
Spine1  5.73744 -0.0328713 0.172922
HEad  -10.418 3.8998 -2.78859
LeftShoulder1  2.40047 -3.6535 -27.3088
LeftArm  -14.2101 26.6737 -11.5995
LeftForeArm  16.2329 -9.57736 -2.3959
LeftHand  -0.244104 0.0205437 5.32207
RightShoulder  2.31245 4.22969 23.7071
RightArm  -17.5725 -17.3765 10.7054
RightForeArm  -6.3023 6.12258 3.94862
RightHand  -1.42222 4.42214 -16.9881
LeftUpLeg  -4.17822 3.08248 1.1506
LeftLeg  7.20426 1.18403 -1.52554
LeftFoot  -0.586493 -0.141771 1.54191
LeftToes  5.72949e-011 -1.2716e-010 -5.73128e-012
140
root  -55.1716 41.2902 -33.646 177.9 -30.3139 179.42
RightUpLeg  -3.64839 -5.71765 -0.498806
RightLeg  6.66646 2.21528 3.99588
RightFoot  0.740324 0.757607 -7.09672
RightToes  -1.16417e-010 0 -3.6325e-017
Spine  1.11522 -0.0458436 4.88308
Spine1  5.23977 0.184658 -1.11466
HEad  -9.67597 3.94733 -2.23591
LeftShoulder1  1.71038 -2.28784 -23.1139
LeftArm  -14.9573 25.6631 -8.88099
LeftForeArm  15.8414 -10.5429 -2.13542
LeftHand  -0.244104 0.0205437 5.32207
RightShoulder  1.69805 2.96803 19.7923
RightArm  -16.8936 -16.7718 8.28048
RightForeArm  -7.04796 4.87456 3.90759
RightHand  -1.43597 4.55435 -16.9285
LeftUpLeg  -3.25539 3.01263 1.18356
LeftLeg  5.53931 1.58979 -2.28035
LeftFoot  -0.138514 -0.181958 1.86522
LeftToes  5.72949e-011 -1.2716e-010 -5.73128e-012
141
root  -55.4129 41.3479 -33.913 178.439 -30.4896 179.334
RightUpLeg  -3.20885 -5.67572 -0.706239
RightLeg  5.92786 2.07829 3.90487
RightFoot  0.475324 0.705246 -6.77057
RightToes  -1.16417e-010 0 -3.6325e-017
Spine  0.428854 -0.241723 4.51391
Spine1  4.9183 -0.00189556 -1.35336
HEad  -9.19637 4.16731 -2.09376
LeftShoulder1  1.13708 -0.857742 -19.3965
LeftArm  -16.4162 24.6964 -6.63563
LeftForeArm  15.8808 -12.4794 -1.92828
LeftHand  -0.244104 0.0205437 5.32207
RightShoulder  1.14466 1.62453 15.5574
RightArm  -16.2809 -15.7356 6.40837
RightForeArm  -7.56198 4.26862 4.02011
RightHand  -1.39468 4.38628 -16.7279
LeftUpLeg  -2.5304 2.81424 1.17702
LeftLeg  4.24744 1.52419 -2.66598
LeftFoot  -0.115179 -0.184721 1.88661
LeftToes  5.72949e-011 -1.2716e-010 -5.73128e-012
142
root  -55.6048 41.395 -34.1642 178.967 -30.7858 179.307
RightUpLeg  -2.92638 -5.61625 -0.787018
RightLeg  5.32091 1.84378 3.8173
RightFoot  0.312489 0.685567 -6.68378
RightToes  -1.16417e-010 0 -3.6325e-017
Spine  -0.273424 -0.457535 3.64377
Spine1  4.81792 -0.355484 -0.848181
HEad  -9.00204 4.44441 -2.18098
LeftShoulder1  0.692678 0.495935 -16.0163
LeftArm  -18.443 23.9028 -4.94452
LeftForeArm  16.21 -15.145 -2.01651
LeftHand  -0.244104 0.0205437 5.32207
RightShoulder  0.729306 0.333977 11.9344
RightArm  -16.1098 -14.4487 4.51653
RightForeArm  -8.52531 4.38685 4.18307
RightHand  -1.36455 4.11683 -16.8221
LeftUpLeg  -2.01826 2.82822 1.21879
LeftLeg  3.05223 1.00971 -2.95138
LeftFoot  -0.127428 -0.170717 1.74712
LeftToes  5.72949e-011 -1.2716e-010 -5.73128e-012
143
root  -55.7754 41.4301 -34.3805 179.498 -30.8632 179.305
RightUpLeg  -2.80868 -5.53866 -0.81754
RightLeg  4.85158 1.76791 3.73807
RightFoot  0.135093 0.656089 -6.50694
RightToes  -1.16417e-010 0 -3.6325e-017
Spine  -0.892868 -0.588519 2.98808
Spine1  4.78652 -0.567197 -0.534321
HEad  -9.1233 4.68409 -2.26901
LeftShoulder1  0.34275 1.81834 -12.8852
LeftArm  -20.2538 22.8573 -3.74466
LeftForeArm  16.1868 -17.5459 -2.47474
LeftHand  -0.244104 0.0205437 5.32207
RightShoulder  0.458924 -0.730674 9.196
RightArm  -16.0808 -13.1524 2.55584
RightForeArm  -10.2568 4.80619 4.4147
RightHand  -1.44694 4.32238 -17.4387
LeftUpLeg  -1.66355 3.04711 1.28191
LeftLeg  2.02013 0.746402 -3.24657
LeftFoot  0.0867486 -0.180197 1.79487
LeftToes  5.72949e-011 -1.2716e-010 -5.73128e-012
144
root  -55.9344 41.4503 -34.547 179.914 -30.8239 179.3
RightUpLeg  -2.74719 -5.51195 -0.882987
RightLeg  4.58324 1.78492 3.68436
RightFoot  -0.101356 0.612214 -6.21708
RightToes  -1.16417e-010 0 -3.6325e-017
Spine  -1.11531 -0.695396 2.71761
Spine1  4.59409 -0.663883 -0.590693
HEad  -9.58066 4.9124 -2.25811
LeftShoulder1  0.0938582 3.00155 -10.2904
LeftArm  -20.9718 21.2545 -2.8018
LeftForeArm  15.3106 -18.6932 -2.87151
LeftHand  -0.244104 0.0205437 5.32207
RightShoulder  0.28428 -1.55096 6.95302
RightArm  -15.9934 -12.0169 1.00256
RightForeArm  -12.3234 5.07113 4.6774
RightHand  -1.63729 5.06716 -18.318
LeftUpLeg  -1.4673 3.07613 1.21674
LeftLeg  1.49215 0.909984 -3.34291
LeftFoot  0.163509 -0.202866 2.00457
LeftToes  5.72949e-011 -1.2716e-010 -5.73128e-012
145
root  -56.0677 41.4583 -34.6781 -179.825 -30.9072 179.296
RightUpLeg  -2.68198 -5.55533 -0.968166
RightLeg  4.50619 1.73883 3.67178
RightFoot  -0.355974 0.581645 -6.06352
RightToes  -1.16417e-010 0 -3.6325e-017
Spine  -0.959524 -0.833636 2.52411
Spine1  4.26679 -0.777522 -0.67314
HEad  -10.2102 5.16074 -2.12542
LeftShoulder1  -0.0304865 3.72776 -8.34157
LeftArm  -20.9175 19.4205 -2.07569
LeftForeArm  14.215 -18.4244 -2.8989
LeftHand  -0.244104 0.0205437 5.32207
RightShoulder  0.183626 -2.09021 5.21607
RightArm  -16.1776 -11.0737 -0.0653644
RightForeArm  -13.6766 4.83631 4.74658
RightHand  -1.80292 5.76644 -18.9035
LeftUpLeg  -1.46623 2.88635 1.04446
LeftLeg  1.50357 1.03363 -3.20179
LeftFoot  -0.101715 -0.216171 2.17368
LeftToes  5.72949e-011 -1.2716e-010 -5.73128e-012
